<?xml version="1.0" encoding="iso-8859-1"?>
<!-- Generator: Adobe Illustrator 19.0.0, SVG Export Plug-In . SVG Version: 6.00 Build 0)  -->
<svg version="1.1" id="Layer_1" xmlns="http://www.w3.org/2000/svg" xmlns:xlink="http://www.w3.org/1999/xlink" x="0px" y="0px"
	 viewBox="0 0 512 512" style="enable-background:new 0 0 512 512;" xml:space="preserve">
<polygon style="fill:#F29C1F;" points="251.509,296.421 161.684,151.804 251.509,0 422.175,0 512,151.804 422.175,296.421 "/>
<path style="fill:#CC801B;" d="M206.596,161.684c-1.797,0-3.593,0-4.491-0.898c-4.491-2.695-5.389-8.084-2.695-12.575l71.86-116.772
	c0.898-2.695,4.491-4.491,7.186-4.491h116.772c5.389,0,8.982,3.593,8.982,8.982s-3.593,8.982-8.982,8.982H283.846l-69.165,112.281
	C212.884,159.888,209.291,161.684,206.596,161.684z"/>
<polygon style="fill:#3B97D3;" points="62.877,404.211 0,296.421 62.877,188.632 184.14,188.632 251.509,296.421 188.632,404.211 
	"/>
<path style="fill:#2D769E;" d="M44.912,305.404c-1.796,0-3.593,0-4.491-1.796c-4.491-2.695-5.389-8.084-2.695-12.575l44.912-71.86
	c0.898-1.796,4.491-3.593,7.186-3.593h71.86c5.389,0,8.982,3.593,8.982,8.982s-3.593,8.982-8.982,8.982h-66.47l-42.218,67.368
	C51.2,303.607,47.607,305.404,44.912,305.404z"/>
<polygon style="fill:#71C285;" points="251.509,512 188.632,404.211 251.509,296.421 377.263,296.421 440.14,395.228 377.263,512 
	"/>
<path style="fill:#599967;" d="M233.544,414.091c-1.796,0-3.593,0-4.491-0.898c-4.491-2.695-5.389-8.084-2.695-12.575l44.912-72.758
	c1.797-2.695,4.491-4.491,8.084-4.491h80.842c5.389,0,8.982,3.593,8.982,8.982c0,5.389-3.593,8.982-8.982,8.982h-75.453
	L242.526,409.6C239.832,412.295,236.239,414.091,233.544,414.091z"/>
<g>
</g>
<g>
</g>
<g>
</g>
<g>
</g>
<g>
</g>
<g>
</g>
<g>
</g>
<g>
</g>
<g>
</g>
<g>
</g>
<g>
</g>
<g>
</g>
<g>
</g>
<g>
</g>
<g>
</g>
</svg>
